<mxfile host="Electron" modified="2023-07-26T00:20:20.561Z" agent="Mozilla/5.0 (X11; Linux x86_64) AppleWebKit/537.36 (KHTML, like Gecko) draw.io/21.6.1 Chrome/112.0.5615.204 Electron/24.6.4 Safari/537.36" etag="n6qFEVO_k6fc9_z1sqpy" version="21.6.1" type="device">
  <diagram name="Page-1" id="msqjQD5EW5xsd1GT00Ly">
    <mxGraphModel dx="363" dy="1232" grid="1" gridSize="10" guides="1" tooltips="1" connect="1" arrows="1" fold="1" page="1" pageScale="1" pageWidth="850" pageHeight="1100" math="0" shadow="0">
      <root>
        <mxCell id="0" />
        <mxCell id="1" parent="0" />
        <mxCell id="bSWF4oOUkGgmCG99WGxA-1" value="" style="rounded=1;whiteSpace=wrap;html=1;fillColor=#F2FAFF;strokeColor=#36393d;" parent="1" vertex="1">
          <mxGeometry x="30" y="430" width="1170" height="381" as="geometry" />
        </mxCell>
        <mxCell id="bSWF4oOUkGgmCG99WGxA-2" value="&lt;font style=&quot;font-size: 16px;&quot; face=&quot;Comic Neue&quot;&gt;Rare Disease Dataset Pipeline&lt;/font&gt;" style="rounded=1;whiteSpace=wrap;html=1;strokeWidth=0.5;shadow=1;" parent="1" vertex="1">
          <mxGeometry x="498.25" y="441" width="233.5" height="30" as="geometry" />
        </mxCell>
        <mxCell id="i3ZK8VEa1icawQo8iLAI-37" style="edgeStyle=orthogonalEdgeStyle;rounded=0;orthogonalLoop=1;jettySize=auto;html=1;exitX=1;exitY=0.5;exitDx=0;exitDy=0;entryX=0;entryY=0.5;entryDx=0;entryDy=0;" parent="1" source="bSWF4oOUkGgmCG99WGxA-21" target="bSWF4oOUkGgmCG99WGxA-30" edge="1">
          <mxGeometry relative="1" as="geometry" />
        </mxCell>
        <mxCell id="bSWF4oOUkGgmCG99WGxA-21" value="" style="rounded=1;whiteSpace=wrap;html=1;fillColor=#E3F1FF;strokeColor=#000000;shadow=1;" parent="1" vertex="1">
          <mxGeometry x="50.75" y="484.14" width="443" height="310" as="geometry" />
        </mxCell>
        <mxCell id="44jSjKUCLiIzwBJKCwdd-6" style="edgeStyle=orthogonalEdgeStyle;rounded=1;orthogonalLoop=1;jettySize=auto;html=1;exitX=1;exitY=0.5;exitDx=0;exitDy=0;entryX=0;entryY=0.5;entryDx=0;entryDy=0;" parent="1" source="bSWF4oOUkGgmCG99WGxA-22" target="44jSjKUCLiIzwBJKCwdd-2" edge="1">
          <mxGeometry relative="1" as="geometry" />
        </mxCell>
        <mxCell id="bSWF4oOUkGgmCG99WGxA-22" value="&lt;font color=&quot;#000000&quot; face=&quot;Comic Neue&quot;&gt;MIMIC-IV&lt;/font&gt;" style="shape=datastore;whiteSpace=wrap;html=1;shadow=1;fontStyle=0;strokeWidth=0.5;fillColor=#cce5ff;strokeColor=#000000;" parent="1" vertex="1">
          <mxGeometry x="76" y="620.59" width="80" height="100" as="geometry" />
        </mxCell>
        <mxCell id="44jSjKUCLiIzwBJKCwdd-4" style="edgeStyle=orthogonalEdgeStyle;rounded=0;orthogonalLoop=1;jettySize=auto;html=1;exitX=1;exitY=0.5;exitDx=0;exitDy=0;" parent="1" source="bSWF4oOUkGgmCG99WGxA-24" target="44jSjKUCLiIzwBJKCwdd-3" edge="1">
          <mxGeometry relative="1" as="geometry" />
        </mxCell>
        <mxCell id="bSWF4oOUkGgmCG99WGxA-24" value="&lt;font color=&quot;#000000&quot; data-font-src=&quot;https://fonts.googleapis.com/css?family=Comic+Neue&quot; face=&quot;Comic Neue&quot;&gt;ORDO&lt;br&gt;Ontology&lt;/font&gt;" style="shape=datastore;whiteSpace=wrap;html=1;shadow=1;fillColor=#cce5ff;strokeColor=#000000;strokeWidth=0.5;" parent="1" vertex="1">
          <mxGeometry x="76" y="506.8400000000001" width="80" height="97.5" as="geometry" />
        </mxCell>
        <mxCell id="GejhwIrvKGc9RxpqlBLe-3" style="edgeStyle=orthogonalEdgeStyle;rounded=0;orthogonalLoop=1;jettySize=auto;html=1;exitX=1;exitY=0.5;exitDx=0;exitDy=0;entryX=0;entryY=0.5;entryDx=0;entryDy=0;" parent="1" source="bSWF4oOUkGgmCG99WGxA-30" target="pp-5m8UVQTDZ82F4YCKo-4" edge="1">
          <mxGeometry relative="1" as="geometry" />
        </mxCell>
        <mxCell id="bSWF4oOUkGgmCG99WGxA-30" value="&lt;font face=&quot;Comic Neue&quot;&gt;&lt;font color=&quot;#000000&quot;&gt;MIMIC-IV Subset&lt;/font&gt;&lt;br&gt;&lt;/font&gt;" style="shape=datastore;whiteSpace=wrap;html=1;shadow=1;strokeWidth=0.5;fillColor=#cce5ff;strokeColor=#000000;" parent="1" vertex="1">
          <mxGeometry x="548.25" y="604.93" width="100" height="68.43" as="geometry" />
        </mxCell>
        <mxCell id="5rCoUwJIOFsVF5jnwrq--2" value="&lt;font style=&quot;font-size: 12px;&quot; face=&quot;Comic Neue&quot;&gt;Matching Engine&lt;/font&gt;" style="rounded=1;whiteSpace=wrap;html=1;strokeWidth=0.5;shadow=1;" parent="1" vertex="1">
          <mxGeometry x="203.75" y="760.64" width="137" height="22.5" as="geometry" />
        </mxCell>
        <mxCell id="44jSjKUCLiIzwBJKCwdd-2" value="Large-Scale Parallel Term Matching" style="rounded=1;whiteSpace=wrap;html=1;fillColor=#ACEBC3;strokeColor=#000000;strokeWidth=0.5;glass=0;shadow=1;fontFamily=Comic Neue;fontSource=https%3A%2F%2Ffonts.googleapis.com%2Fcss%3Ffamily%3DComic%2BNeue;fontStyle=0" parent="1" vertex="1">
          <mxGeometry x="348.5" y="583.71" width="120" height="75" as="geometry" />
        </mxCell>
        <mxCell id="44jSjKUCLiIzwBJKCwdd-5" style="edgeStyle=orthogonalEdgeStyle;rounded=1;orthogonalLoop=1;jettySize=auto;html=1;exitX=1;exitY=0.5;exitDx=0;exitDy=0;entryX=0.5;entryY=0;entryDx=0;entryDy=0;" parent="1" source="44jSjKUCLiIzwBJKCwdd-3" target="44jSjKUCLiIzwBJKCwdd-2" edge="1">
          <mxGeometry relative="1" as="geometry" />
        </mxCell>
        <mxCell id="44jSjKUCLiIzwBJKCwdd-3" value="&lt;font color=&quot;#000000&quot;&gt;SPARQL Processing&lt;/font&gt;" style="rounded=1;whiteSpace=wrap;html=1;fillColor=#C8B8FF;strokeColor=#000000;strokeWidth=0.5;glass=0;shadow=1;fontFamily=Comic Neue;fontSource=https%3A%2F%2Ffonts.googleapis.com%2Fcss%3Ffamily%3DComic%2BNeue;fontStyle=0;fontColor=#ffffff;" parent="1" vertex="1">
          <mxGeometry x="213.5" y="531.5300000000001" width="120" height="48.12" as="geometry" />
        </mxCell>
        <mxCell id="i3ZK8VEa1icawQo8iLAI-10" value="&lt;font face=&quot;Comic Neue&quot;&gt;&lt;font color=&quot;#000000&quot;&gt;Final Subset&lt;/font&gt;&lt;br&gt;&lt;/font&gt;" style="shape=datastore;whiteSpace=wrap;html=1;shadow=1;strokeWidth=0.5;fillColor=#cce5ff;strokeColor=#000000;" parent="1" vertex="1">
          <mxGeometry x="1079.25" y="617.43" width="100" height="43.43" as="geometry" />
        </mxCell>
        <mxCell id="GejhwIrvKGc9RxpqlBLe-6" style="edgeStyle=orthogonalEdgeStyle;rounded=0;orthogonalLoop=1;jettySize=auto;html=1;exitX=1;exitY=0.5;exitDx=0;exitDy=0;entryX=0;entryY=0.5;entryDx=0;entryDy=0;" parent="1" source="pp-5m8UVQTDZ82F4YCKo-4" target="i3ZK8VEa1icawQo8iLAI-10" edge="1">
          <mxGeometry relative="1" as="geometry" />
        </mxCell>
        <mxCell id="pp-5m8UVQTDZ82F4YCKo-4" value="" style="rounded=1;whiteSpace=wrap;html=1;fillColor=#E3F1FF;strokeColor=#000000;shadow=1;" parent="1" vertex="1">
          <mxGeometry x="695.25" y="505.81" width="330" height="266.66" as="geometry" />
        </mxCell>
        <mxCell id="pp-5m8UVQTDZ82F4YCKo-5" value="&lt;font style=&quot;font-size: 12px;&quot; face=&quot;Comic Neue&quot;&gt;Annotation Process&lt;/font&gt;" style="rounded=1;whiteSpace=wrap;html=1;strokeWidth=0.5;shadow=1;" parent="1" vertex="1">
          <mxGeometry x="791.75" y="738.4999999999999" width="137" height="22.5" as="geometry" />
        </mxCell>
        <mxCell id="pp-5m8UVQTDZ82F4YCKo-6" value="" style="rounded=1;whiteSpace=wrap;html=1;fillColor=#cce5ff;strokeColor=#000000;shadow=1;" parent="1" vertex="1">
          <mxGeometry x="837.75" y="545.0199999999999" width="145" height="170" as="geometry" />
        </mxCell>
        <mxCell id="pp-5m8UVQTDZ82F4YCKo-7" value="&lt;font style=&quot;font-size: 12px;&quot; face=&quot;Comic Neue&quot;&gt;Two Rounds of&lt;br&gt;IAA-Aware Annotations&lt;br&gt;&lt;/font&gt;" style="rounded=1;whiteSpace=wrap;html=1;strokeWidth=0.5;shadow=1;" parent="1" vertex="1">
          <mxGeometry x="846.38" y="660.43" width="127.75" height="36.17" as="geometry" />
        </mxCell>
        <mxCell id="pp-5m8UVQTDZ82F4YCKo-8" value="" style="rounded=1;whiteSpace=wrap;html=1;strokeWidth=0.5;glass=0;shadow=1;strokeColor=#000000;" parent="1" vertex="1">
          <mxGeometry x="855" y="562.3599999999999" width="110.5" height="80" as="geometry" />
        </mxCell>
        <mxCell id="pp-5m8UVQTDZ82F4YCKo-9" value="&lt;font data-font-src=&quot;https://fonts.googleapis.com/css?family=Comic+Neue&quot; face=&quot;Comic Neue&quot;&gt;&lt;br&gt;A&lt;/font&gt;" style="shape=actor;whiteSpace=wrap;html=1;fillColor=#eeeeee;strokeColor=#36393d;" parent="1" vertex="1">
          <mxGeometry x="875.2499999999999" y="570.93" width="30" height="45" as="geometry" />
        </mxCell>
        <mxCell id="pp-5m8UVQTDZ82F4YCKo-10" value="&lt;font data-font-src=&quot;https://fonts.googleapis.com/css?family=Comic+Neue&quot; face=&quot;Comic Neue&quot;&gt;&lt;br&gt;B&lt;/font&gt;" style="shape=actor;whiteSpace=wrap;html=1;fillColor=#eeeeee;strokeColor=#36393d;" parent="1" vertex="1">
          <mxGeometry x="915.2499999999999" y="570.93" width="30" height="45" as="geometry" />
        </mxCell>
        <mxCell id="pp-5m8UVQTDZ82F4YCKo-11" value="Two Annotators" style="text;html=1;strokeColor=none;fillColor=none;align=center;verticalAlign=middle;whiteSpace=wrap;rounded=0;fontFamily=Comic Neue;fontSource=https%3A%2F%2Ffonts.googleapis.com%2Fcss%3Ffamily%3DComic%2BNeue;" parent="1" vertex="1">
          <mxGeometry x="862.7499999999999" y="614.3599999999999" width="95" height="30" as="geometry" />
        </mxCell>
        <mxCell id="GejhwIrvKGc9RxpqlBLe-5" style="edgeStyle=orthogonalEdgeStyle;rounded=1;orthogonalLoop=1;jettySize=auto;html=1;exitX=0.5;exitY=0;exitDx=0;exitDy=0;entryX=0.5;entryY=0;entryDx=0;entryDy=0;" parent="1" source="pp-5m8UVQTDZ82F4YCKo-12" target="pp-5m8UVQTDZ82F4YCKo-6" edge="1">
          <mxGeometry relative="1" as="geometry" />
        </mxCell>
        <mxCell id="pp-5m8UVQTDZ82F4YCKo-12" value="&lt;font data-font-src=&quot;https://fonts.googleapis.com/css?family=Comic+Neue&quot; face=&quot;Comic Neue&quot;&gt;Annotation Guidelines&lt;br&gt;&lt;br&gt;&lt;br&gt;&lt;br&gt;&lt;br&gt;&lt;/font&gt;" style="rounded=1;whiteSpace=wrap;html=1;shadow=1;fontStyle=0;fillColor=#f9f7ed;strokeColor=#000000;strokeWidth=0.5;" parent="1" vertex="1">
          <mxGeometry x="715.25" y="577.5199999999999" width="90" height="105" as="geometry" />
        </mxCell>
        <mxCell id="GejhwIrvKGc9RxpqlBLe-11" style="edgeStyle=orthogonalEdgeStyle;rounded=1;orthogonalLoop=1;jettySize=auto;html=1;exitX=1;exitY=0.5;exitDx=0;exitDy=0;entryX=0.5;entryY=1;entryDx=0;entryDy=0;" parent="1" source="GejhwIrvKGc9RxpqlBLe-1" target="44jSjKUCLiIzwBJKCwdd-2" edge="1">
          <mxGeometry relative="1" as="geometry" />
        </mxCell>
        <mxCell id="GejhwIrvKGc9RxpqlBLe-1" value="&lt;font color=&quot;#000000&quot;&gt;Weak Supervision Rules&lt;br&gt;à la Dong et al., 2023&lt;/font&gt;" style="rounded=1;whiteSpace=wrap;html=1;fillColor=#FFD4F2;strokeColor=#000000;strokeWidth=0.5;glass=0;shadow=1;fontFamily=Comic Neue;fontSource=https%3A%2F%2Ffonts.googleapis.com%2Fcss%3Ffamily%3DComic%2BNeue;fontStyle=0;" parent="1" vertex="1">
          <mxGeometry x="196" y="689.38" width="137.5" height="48.12" as="geometry" />
        </mxCell>
        <mxCell id="m8N0sq1PeGTfy-VQiYK0-5" value="" style="verticalLabelPosition=bottom;verticalAlign=top;html=1;shape=mxgraph.basic.tick;fillColor=#cdeb8b;strokeColor=#36393d;" parent="1" vertex="1">
          <mxGeometry x="722.82" y="641" width="12.37" height="14.36" as="geometry" />
        </mxCell>
        <mxCell id="m8N0sq1PeGTfy-VQiYK0-6" value="" style="verticalLabelPosition=bottom;verticalAlign=top;html=1;shape=mxgraph.basic.x;fillColor=#ffcccc;strokeColor=#36393d;" parent="1" vertex="1">
          <mxGeometry x="724" y="623.36" width="10" height="10" as="geometry" />
        </mxCell>
        <mxCell id="m8N0sq1PeGTfy-VQiYK0-13" value="" style="verticalLabelPosition=bottom;verticalAlign=top;html=1;shape=mxgraph.basic.x;fillColor=#ffcccc;strokeColor=#36393d;" parent="1" vertex="1">
          <mxGeometry x="724" y="663.36" width="10" height="10" as="geometry" />
        </mxCell>
        <mxCell id="m8N0sq1PeGTfy-VQiYK0-21" value="" style="endArrow=none;html=1;rounded=0;" parent="1" edge="1">
          <mxGeometry width="50" height="50" relative="1" as="geometry">
            <mxPoint x="742.5" y="668.12" as="sourcePoint" />
            <mxPoint x="796" y="668.12" as="targetPoint" />
          </mxGeometry>
        </mxCell>
        <mxCell id="m8N0sq1PeGTfy-VQiYK0-22" value="" style="endArrow=none;html=1;rounded=0;" parent="1" edge="1">
          <mxGeometry width="50" height="50" relative="1" as="geometry">
            <mxPoint x="742.25" y="648.1" as="sourcePoint" />
            <mxPoint x="795.75" y="648.1" as="targetPoint" />
          </mxGeometry>
        </mxCell>
        <mxCell id="m8N0sq1PeGTfy-VQiYK0-23" value="" style="endArrow=none;html=1;rounded=0;" parent="1" edge="1">
          <mxGeometry width="50" height="50" relative="1" as="geometry">
            <mxPoint x="742.25" y="628.92" as="sourcePoint" />
            <mxPoint x="795.75" y="628.92" as="targetPoint" />
          </mxGeometry>
        </mxCell>
        <mxCell id="m8N0sq1PeGTfy-VQiYK0-27" value="" style="endArrow=none;html=1;rounded=0;" parent="1" edge="1">
          <mxGeometry width="50" height="50" relative="1" as="geometry">
            <mxPoint x="742.25" y="639" as="sourcePoint" />
            <mxPoint x="781" y="639" as="targetPoint" />
          </mxGeometry>
        </mxCell>
        <mxCell id="m8N0sq1PeGTfy-VQiYK0-28" value="" style="endArrow=none;html=1;rounded=0;" parent="1" edge="1">
          <mxGeometry width="50" height="50" relative="1" as="geometry">
            <mxPoint x="742.25" y="657" as="sourcePoint" />
            <mxPoint x="781" y="657" as="targetPoint" />
          </mxGeometry>
        </mxCell>
      </root>
    </mxGraphModel>
  </diagram>
</mxfile>
